<svg width="141" height="46" viewBox="0 0 141 46" fill="none" xmlns="http://www.w3.org/2000/svg">
<path d="M12.99 27H2.97V6H12.06C13.92 6 15.39 6.46 16.47 7.38C17.55 8.28 18.09 9.52 18.09 11.1C18.09 12.18 17.84 13.11 17.34 13.89C16.86 14.67 16.19 15.22 15.33 15.54C16.73 15.76 17.84 16.37 18.66 17.37C19.48 18.37 19.89 19.63 19.89 21.15C19.89 22.93 19.27 24.35 18.03 25.41C16.79 26.47 15.11 27 12.99 27ZM5.19 16.83V24.99H12.6C14.16 24.99 15.37 24.63 16.23 23.91C17.09 23.19 17.52 22.18 17.52 20.88C17.52 19.6 17.09 18.61 16.23 17.91C15.37 17.19 14.16 16.83 12.6 16.83H5.19ZM5.19 8.01V14.88H11.7C13.04 14.88 14.07 14.59 14.79 14.01C15.53 13.43 15.9 12.59 15.9 11.49C15.9 10.37 15.53 9.51 14.79 8.91C14.07 8.31 13.04 8.01 11.7 8.01H5.19ZM26.5746 8.76C28.5946 6.68 31.1146 5.64 34.1346 5.64C37.1346 5.64 39.6446 6.68 41.6646 8.76C43.6846 10.84 44.6946 13.42 44.6946 16.5C44.6946 19.6 43.6846 22.19 41.6646 24.27C39.6646 26.33 37.1546 27.36 34.1346 27.36C31.0946 27.36 28.5746 26.33 26.5746 24.27C24.5746 22.21 23.5746 19.62 23.5746 16.5C23.5746 13.4 24.5746 10.82 26.5746 8.76ZM28.2246 22.77C29.8046 24.45 31.7746 25.29 34.1346 25.29C36.4946 25.29 38.4646 24.45 40.0446 22.77C41.6446 21.07 42.4446 18.98 42.4446 16.5C42.4446 14.02 41.6446 11.93 40.0446 10.23C38.4646 8.55 36.4946 7.71 34.1346 7.71C31.7746 7.71 29.8046 8.55 28.2246 10.23C26.6246 11.93 25.8246 14.02 25.8246 16.5C25.8246 18.98 26.6246 21.07 28.2246 22.77ZM51.9464 27H49.7864V6H51.7064L64.9664 23.16V6H67.1264V27H65.2364L51.9464 9.78V27ZM75.1781 8.76C77.1981 6.68 79.7181 5.64 82.7381 5.64C85.7381 5.64 88.2481 6.68 90.2681 8.76C92.2881 10.84 93.2981 13.42 93.2981 16.5C93.2981 19.6 92.2881 22.19 90.2681 24.27C88.2681 26.33 85.7581 27.36 82.7381 27.36C79.6981 27.36 77.1781 26.33 75.1781 24.27C73.1781 22.21 72.1781 19.62 72.1781 16.5C72.1781 13.4 73.1781 10.82 75.1781 8.76ZM76.8281 22.77C78.4081 24.45 80.3781 25.29 82.7381 25.29C85.0981 25.29 87.0681 24.45 88.6481 22.77C90.2481 21.07 91.0481 18.98 91.0481 16.5C91.0481 14.02 90.2481 11.93 88.6481 10.23C87.0681 8.55 85.0981 7.71 82.7381 7.71C80.3781 7.71 78.4081 8.55 76.8281 10.23C75.2281 11.93 74.4281 14.02 74.4281 16.5C74.4281 18.98 75.2281 21.07 76.8281 22.77ZM112.34 27H98.3899V6H100.61V24.99H112.34V27ZM118.66 27H116.44V6H118.66V27ZM132.288 27H130.068V8.01H122.838V6H139.608V8.01H132.288V27Z" fill="#222222"/>
<path d="M3.48937 42.251H2.78471V37.5239H7.03224V42.251H6.32758V38.1405H3.48937V42.251ZM10.0419 38.1405C10.5182 37.6511 11.1315 37.4064 11.8818 37.4064C12.6322 37.4064 13.2455 37.6511 13.7218 38.1405C14.1981 38.6168 14.4362 39.2007 14.4362 39.8923C14.4362 40.5839 14.1981 41.1679 13.7218 41.6442C13.2389 42.127 12.6256 42.3684 11.8818 42.3684C11.138 42.3684 10.5247 42.127 10.0419 41.6442C9.56558 41.1679 9.32743 40.5839 9.32743 39.8923C9.32743 39.2007 9.56558 38.6168 10.0419 38.1405ZM13.712 39.8923C13.712 39.3704 13.5391 38.9299 13.1933 38.5711C12.8475 38.2188 12.4103 38.0426 11.8818 38.0426C11.3533 38.0426 10.9162 38.2188 10.5704 38.5711C10.2246 38.9299 10.0517 39.3704 10.0517 39.8923C10.0517 40.4078 10.2246 40.8449 10.5704 41.2038C10.9162 41.5561 11.3533 41.7323 11.8818 41.7323C12.4103 41.7323 12.8475 41.5561 13.1933 41.2038C13.5391 40.8449 13.712 40.4078 13.712 39.8923ZM22.4592 42.3684C21.735 42.3684 21.1347 42.1335 20.6584 41.6638C20.1821 41.1875 19.944 40.5937 19.944 39.8825C19.944 39.1779 20.1854 38.5907 20.6682 38.1209C21.1445 37.6446 21.7448 37.4064 22.469 37.4064C23.0171 37.4064 23.4934 37.5206 23.8979 37.749V38.4047C23.4738 38.1633 23.0301 38.0426 22.5669 38.0426C22.0188 38.0426 21.5653 38.2188 21.2065 38.5711C20.8476 38.9104 20.6682 39.3508 20.6682 39.8923C20.6682 40.4208 20.8476 40.8612 21.2065 41.2136C21.5719 41.5594 22.0253 41.7323 22.5669 41.7323C23.0888 41.7323 23.5619 41.5953 23.986 41.3212V41.9672C23.5423 42.2347 23.0334 42.3684 22.4592 42.3684ZM27.9929 41.7323C28.3191 41.7323 28.629 41.6572 28.9227 41.5072C29.2163 41.3571 29.4544 41.1679 29.6371 40.9395V40.2838C29.1543 39.9706 28.6421 39.814 28.1006 39.814C27.6699 39.814 27.3274 39.8988 27.0729 40.0685C26.825 40.2381 26.701 40.4698 26.701 40.7634C26.701 41.07 26.8217 41.3082 27.0631 41.4778C27.3045 41.6474 27.6145 41.7323 27.9929 41.7323ZM27.7972 42.3684C27.2948 42.3684 26.8674 42.2314 26.5151 41.9574C26.1693 41.6703 25.9964 41.2853 25.9964 40.8025C25.9964 40.3262 26.179 39.9445 26.5444 39.6574C26.9098 39.3769 27.3731 39.2366 27.9342 39.2366C28.5475 39.2366 29.1151 39.3899 29.6371 39.6966V39.2268C29.6371 38.4373 29.1184 38.0426 28.081 38.0426C27.5264 38.0426 27.0109 38.2024 26.5346 38.5222V37.8371C26.9979 37.55 27.5623 37.4064 28.2278 37.4064C28.8737 37.4064 29.3859 37.5598 29.7643 37.8664C30.1493 38.1666 30.3418 38.5972 30.3418 39.1583V41.1059C30.3418 41.2886 30.3809 41.4321 30.4592 41.5365C30.544 41.6409 30.6549 41.6931 30.792 41.6931C30.8964 41.6931 30.9877 41.6735 31.066 41.6344V42.1825C30.9616 42.2542 30.805 42.2901 30.5962 42.2901C30.3613 42.2901 30.1623 42.2281 29.9992 42.1042C29.8426 41.9737 29.7448 41.7845 29.7056 41.5365C29.2293 42.0911 28.5932 42.3684 27.7972 42.3684ZM33.8724 42.251H33.1873V37.5239H33.8724L35.7613 39.7162L37.6599 37.5239H38.345V42.251H37.6599V38.4928L35.8983 40.5383H35.6243L33.8724 38.4928V42.251ZM46.3925 42.251H45.6878V37.5239H46.3925V42.251ZM43.1334 42.251H40.9901V37.5239H41.6948V39.1094H43.1041C43.6522 39.1094 44.0893 39.2529 44.4155 39.54C44.7418 39.8206 44.9049 40.199 44.9049 40.6753C44.9049 41.1516 44.7483 41.5333 44.4351 41.8204C44.1219 42.1074 43.688 42.251 43.1334 42.251ZM41.6948 39.7259V41.6344H43.0062C43.3781 41.6344 43.6685 41.5528 43.8773 41.3897C44.086 41.2201 44.1904 40.9852 44.1904 40.6851C44.1904 40.3784 44.086 40.1435 43.8773 39.9804C43.6685 39.8108 43.3781 39.7259 43.0062 39.7259H41.6948ZM49.7169 42.251H49.0318V37.5239H49.7169L51.6058 39.7162L53.5045 37.5239H54.1896V42.251H53.5045V38.4928L51.7428 40.5383H51.4688L49.7169 38.4928V42.251ZM61.0985 42.251H60.3939V37.5239H61.0985V39.5106H64.0053V37.5239H64.7099V42.251H64.0053V40.1468H61.0985V42.251ZM68.0113 42.251H67.3556V37.5239H68.0603V41.2136L71.0844 37.5239H71.7401V42.251H71.0355V38.5711L68.0113 42.251ZM75.8914 42.3684C75.2063 42.3684 74.6256 42.2608 74.1493 42.0455V41.3604C74.6778 41.6083 75.2292 41.7323 75.8033 41.7323C76.2862 41.7323 76.6646 41.6572 76.9386 41.5072C77.2192 41.3506 77.3595 41.1353 77.3595 40.8612C77.3595 40.6133 77.2453 40.4208 77.0169 40.2838C76.7886 40.1468 76.4754 40.0783 76.0774 40.0783H75.2553V39.4617H76.0774C76.4427 39.4617 76.7168 39.3997 76.8995 39.2757C77.0887 39.1518 77.1833 38.9854 77.1833 38.7766C77.1833 38.2873 76.7396 38.0426 75.8523 38.0426C75.3238 38.0426 74.8051 38.1502 74.2961 38.3656V37.7098C74.7463 37.5076 75.3107 37.4064 75.9893 37.4064C76.5308 37.4064 76.9843 37.5206 77.3497 37.749C77.7151 37.9773 77.8977 38.2775 77.8977 38.6494C77.8782 38.956 77.8031 39.1877 77.6726 39.3443C77.5421 39.4943 77.3627 39.6183 77.1344 39.7162C77.7738 39.9249 78.0935 40.3229 78.0935 40.9102C78.0935 41.3473 77.8912 41.6996 77.4867 41.9672C77.0887 42.2347 76.5569 42.3684 75.8914 42.3684ZM80.4953 37.5239H81.2V39.4715L83.451 37.5239H84.4101L81.9144 39.6574L84.7624 42.251H83.7544L81.2 39.9217V42.251H80.4953V37.5239ZM87.4246 42.251H86.7689V37.5239H87.4736V41.2136L90.4977 37.5239H91.1535V42.251H90.4488V38.5711L87.4246 42.251ZM94.4826 42.251H93.7976V37.5239H94.4826L96.3715 39.7162L98.2702 37.5239H98.9553V42.251H98.2702V38.4928L96.5085 40.5383H96.2345L94.4826 38.4928V42.251ZM110.249 43.6505H109.573V42.251H105.16V37.5239H105.864V41.6344H108.673V37.5239H109.378V41.6344H110.249V43.6505ZM114.64 42.3684C113.903 42.3684 113.283 42.1368 112.781 41.6735C112.285 41.2168 112.037 40.6231 112.037 39.8923C112.037 39.1877 112.259 38.5972 112.702 38.1209C113.153 37.6446 113.73 37.4064 114.435 37.4064C114.813 37.4064 115.149 37.4847 115.443 37.6413C115.736 37.7914 115.968 37.9904 116.138 38.2383C116.307 38.4863 116.434 38.7505 116.519 39.0311C116.604 39.3051 116.646 39.5824 116.646 39.863V40.0587H112.761C112.8 40.5676 113.002 40.9754 113.368 41.2821C113.74 41.5822 114.21 41.7323 114.777 41.7323C115.325 41.7323 115.831 41.5855 116.294 41.2919V41.9182C115.909 42.2184 115.358 42.3684 114.64 42.3684ZM112.771 39.4813H115.932C115.912 39.1159 115.775 38.7864 115.521 38.4928C115.28 38.1927 114.908 38.0426 114.405 38.0426C113.935 38.0426 113.551 38.1861 113.25 38.4732C112.957 38.7668 112.797 39.1028 112.771 39.4813ZM119.654 42.251H118.949V37.5239H119.654V39.5106H122.561V37.5239H123.265V42.251H122.561V40.1468H119.654V42.251ZM127.506 41.7323C127.832 41.7323 128.142 41.6572 128.436 41.5072C128.73 41.3571 128.968 41.1679 129.15 40.9395V40.2838C128.668 39.9706 128.155 39.814 127.614 39.814C127.183 39.814 126.841 39.8988 126.586 40.0685C126.338 40.2381 126.214 40.4698 126.214 40.7634C126.214 41.07 126.335 41.3082 126.576 41.4778C126.818 41.6474 127.128 41.7323 127.506 41.7323ZM127.31 42.3684C126.808 42.3684 126.381 42.2314 126.028 41.9574C125.683 41.6703 125.51 41.2853 125.51 40.8025C125.51 40.3262 125.692 39.9445 126.058 39.6574C126.423 39.3769 126.886 39.2366 127.448 39.2366C128.061 39.2366 128.628 39.3899 129.15 39.6966V39.2268C129.15 38.4373 128.632 38.0426 127.594 38.0426C127.04 38.0426 126.524 38.2024 126.048 38.5222V37.8371C126.511 37.55 127.076 37.4064 127.741 37.4064C128.387 37.4064 128.899 37.5598 129.278 37.8664C129.663 38.1666 129.855 38.5972 129.855 39.1583V41.1059C129.855 41.2886 129.894 41.4321 129.973 41.5365C130.057 41.6409 130.168 41.6931 130.305 41.6931C130.41 41.6931 130.501 41.6735 130.579 41.6344V42.1825C130.475 42.2542 130.318 42.2901 130.11 42.2901C129.875 42.2901 129.676 42.2281 129.513 42.1042C129.356 41.9737 129.258 41.7845 129.219 41.5365C128.743 42.0911 128.106 42.3684 127.31 42.3684ZM133.386 42.251H132.701V37.5239H133.386L135.275 39.7162L137.173 37.5239H137.858V42.251H137.173V38.4928L135.412 40.5383H135.138L133.386 38.4928V42.251Z" fill="#979797"/>
</svg>
